<mxfile host="app.diagrams.net" modified="2021-01-19T07:10:52.645Z" agent="5.0 (Windows NT 10.0; Win64; x64) AppleWebKit/537.36 (KHTML, like Gecko) Chrome/87.0.4280.141 Safari/537.36" etag="lf1VgxwsCenz2cXTmnd_" version="14.2.4" type="github">
  <diagram id="dutsK4isTf-zi3D74Xx_" name="Page-1">
    <mxGraphModel dx="1182" dy="1864" grid="1" gridSize="10" guides="1" tooltips="1" connect="1" arrows="1" fold="1" page="1" pageScale="1" pageWidth="850" pageHeight="1100" math="0" shadow="0">
      <root>
        <mxCell id="0" />
        <mxCell id="1" parent="0" />
        <mxCell id="kH1T388jV72Jrz55Pmgw-8" value="" style="whiteSpace=wrap;html=1;aspect=fixed;" vertex="1" parent="1">
          <mxGeometry x="160" y="-40" width="820" height="820" as="geometry" />
        </mxCell>
        <mxCell id="kH1T388jV72Jrz55Pmgw-1" value="usager" style="shape=umlActor;verticalLabelPosition=bottom;verticalAlign=top;html=1;" vertex="1" parent="1">
          <mxGeometry x="80" y="60" width="30" height="60" as="geometry" />
        </mxCell>
        <mxCell id="kH1T388jV72Jrz55Pmgw-4" value="employé" style="shape=umlActor;verticalLabelPosition=bottom;verticalAlign=top;html=1;" vertex="1" parent="1">
          <mxGeometry x="80" y="220" width="30" height="60" as="geometry" />
        </mxCell>
        <mxCell id="kH1T388jV72Jrz55Pmgw-5" value="benevole" style="shape=umlActor;verticalLabelPosition=bottom;verticalAlign=top;html=1;" vertex="1" parent="1">
          <mxGeometry x="80" y="400" width="30" height="60" as="geometry" />
        </mxCell>
        <mxCell id="kH1T388jV72Jrz55Pmgw-6" value="bibliothecaire" style="shape=umlActor;verticalLabelPosition=bottom;verticalAlign=top;html=1;" vertex="1" parent="1">
          <mxGeometry x="80" y="570" width="30" height="60" as="geometry" />
        </mxCell>
        <mxCell id="kH1T388jV72Jrz55Pmgw-7" value="emprunt" style="ellipse;whiteSpace=wrap;html=1;" vertex="1" parent="1">
          <mxGeometry x="480" y="100" width="120" height="80" as="geometry" />
        </mxCell>
        <mxCell id="kH1T388jV72Jrz55Pmgw-9" value="consulter la bdd" style="ellipse;whiteSpace=wrap;html=1;" vertex="1" parent="1">
          <mxGeometry x="850" y="110" width="120" height="80" as="geometry" />
        </mxCell>
        <mxCell id="kH1T388jV72Jrz55Pmgw-10" value="Use" style="endArrow=open;endSize=12;dashed=1;html=1;" edge="1" parent="1" source="kH1T388jV72Jrz55Pmgw-9" target="kH1T388jV72Jrz55Pmgw-11">
          <mxGeometry width="160" relative="1" as="geometry">
            <mxPoint x="340" y="330" as="sourcePoint" />
            <mxPoint x="500" y="330" as="targetPoint" />
          </mxGeometry>
        </mxCell>
        <mxCell id="kH1T388jV72Jrz55Pmgw-11" value="vérifier nombre d&#39;emprunt et cotisation" style="ellipse;whiteSpace=wrap;html=1;fillColor=#f8cecc;strokeColor=#b85450;" vertex="1" parent="1">
          <mxGeometry x="690" y="200" width="120" height="80" as="geometry" />
        </mxCell>
        <mxCell id="kH1T388jV72Jrz55Pmgw-12" value="Use" style="endArrow=open;endSize=12;dashed=1;html=1;" edge="1" parent="1" source="kH1T388jV72Jrz55Pmgw-11" target="kH1T388jV72Jrz55Pmgw-7">
          <mxGeometry width="160" relative="1" as="geometry">
            <mxPoint x="340" y="310" as="sourcePoint" />
            <mxPoint x="500" y="310" as="targetPoint" />
          </mxGeometry>
        </mxCell>
        <mxCell id="kH1T388jV72Jrz55Pmgw-13" value="" style="endArrow=open;endFill=1;endSize=12;html=1;exitX=1;exitY=1;exitDx=0;exitDy=0;exitPerimeter=0;fillColor=#dae8fc;strokeColor=#6c8ebf;" edge="1" parent="1" source="kH1T388jV72Jrz55Pmgw-1" target="kH1T388jV72Jrz55Pmgw-7">
          <mxGeometry width="160" relative="1" as="geometry">
            <mxPoint x="340" y="310" as="sourcePoint" />
            <mxPoint x="500" y="310" as="targetPoint" />
          </mxGeometry>
        </mxCell>
        <mxCell id="kH1T388jV72Jrz55Pmgw-14" value="" style="endArrow=open;endFill=1;endSize=12;html=1;exitX=0.667;exitY=0.833;exitDx=0;exitDy=0;exitPerimeter=0;fillColor=#f8cecc;strokeColor=#b85450;" edge="1" parent="1" source="kH1T388jV72Jrz55Pmgw-4" target="kH1T388jV72Jrz55Pmgw-11">
          <mxGeometry width="160" relative="1" as="geometry">
            <mxPoint x="340" y="310" as="sourcePoint" />
            <mxPoint x="500" y="310" as="targetPoint" />
          </mxGeometry>
        </mxCell>
        <mxCell id="kH1T388jV72Jrz55Pmgw-15" value="consulter document" style="ellipse;whiteSpace=wrap;html=1;fillColor=#dae8fc;strokeColor=#6c8ebf;" vertex="1" parent="1">
          <mxGeometry x="250" y="30" width="140" height="70" as="geometry" />
        </mxCell>
        <mxCell id="kH1T388jV72Jrz55Pmgw-16" value="" style="endArrow=open;endFill=1;endSize=12;html=1;exitX=0.533;exitY=0.7;exitDx=0;exitDy=0;exitPerimeter=0;fillColor=#dae8fc;strokeColor=#6c8ebf;" edge="1" parent="1" source="kH1T388jV72Jrz55Pmgw-1" target="kH1T388jV72Jrz55Pmgw-15">
          <mxGeometry width="160" relative="1" as="geometry">
            <mxPoint x="340" y="310" as="sourcePoint" />
            <mxPoint x="500" y="310" as="targetPoint" />
          </mxGeometry>
        </mxCell>
        <mxCell id="kH1T388jV72Jrz55Pmgw-17" value="" style="endArrow=open;endFill=1;endSize=12;html=1;exitX=0.333;exitY=0.833;exitDx=0;exitDy=0;exitPerimeter=0;entryX=0.333;entryY=1;entryDx=0;entryDy=0;entryPerimeter=0;fillColor=#d5e8d4;strokeColor=#82b366;" edge="1" parent="1" source="kH1T388jV72Jrz55Pmgw-5" target="kH1T388jV72Jrz55Pmgw-7">
          <mxGeometry width="160" relative="1" as="geometry">
            <mxPoint x="340" y="310" as="sourcePoint" />
            <mxPoint x="500" y="310" as="targetPoint" />
          </mxGeometry>
        </mxCell>
        <mxCell id="kH1T388jV72Jrz55Pmgw-18" value="relance" style="ellipse;whiteSpace=wrap;html=1;fillColor=#e1d5e7;strokeColor=#9673a6;" vertex="1" parent="1">
          <mxGeometry x="220" y="610" width="140" height="70" as="geometry" />
        </mxCell>
        <mxCell id="kH1T388jV72Jrz55Pmgw-19" value="" style="endArrow=open;endFill=1;endSize=12;html=1;entryX=0.086;entryY=0.757;entryDx=0;entryDy=0;entryPerimeter=0;fillColor=#f8cecc;strokeColor=#b85450;" edge="1" parent="1" source="kH1T388jV72Jrz55Pmgw-4" target="kH1T388jV72Jrz55Pmgw-21">
          <mxGeometry width="160" relative="1" as="geometry">
            <mxPoint x="340" y="310" as="sourcePoint" />
            <mxPoint x="500" y="310" as="targetPoint" />
          </mxGeometry>
        </mxCell>
        <mxCell id="kH1T388jV72Jrz55Pmgw-20" value="" style="endArrow=open;endFill=1;endSize=12;html=1;exitX=0.5;exitY=0.5;exitDx=0;exitDy=0;exitPerimeter=0;fillColor=#e1d5e7;strokeColor=#9673a6;" edge="1" parent="1" source="kH1T388jV72Jrz55Pmgw-6" target="kH1T388jV72Jrz55Pmgw-18">
          <mxGeometry width="160" relative="1" as="geometry">
            <mxPoint x="340" y="310" as="sourcePoint" />
            <mxPoint x="500" y="310" as="targetPoint" />
          </mxGeometry>
        </mxCell>
        <mxCell id="kH1T388jV72Jrz55Pmgw-21" value="add nouveau document" style="ellipse;whiteSpace=wrap;html=1;fillColor=#f8cecc;strokeColor=#b85450;" vertex="1" parent="1">
          <mxGeometry x="680" y="310" width="140" height="70" as="geometry" />
        </mxCell>
        <mxCell id="kH1T388jV72Jrz55Pmgw-22" value="add nouveau usager" style="ellipse;whiteSpace=wrap;html=1;fillColor=#f8cecc;strokeColor=#b85450;" vertex="1" parent="1">
          <mxGeometry x="650" y="430" width="140" height="70" as="geometry" />
        </mxCell>
        <mxCell id="kH1T388jV72Jrz55Pmgw-23" value="" style="endArrow=open;endFill=1;endSize=12;html=1;entryX=0;entryY=0.5;entryDx=0;entryDy=0;exitX=0.567;exitY=0.783;exitDx=0;exitDy=0;exitPerimeter=0;fillColor=#f8cecc;strokeColor=#b85450;" edge="1" parent="1" source="kH1T388jV72Jrz55Pmgw-4" target="kH1T388jV72Jrz55Pmgw-22">
          <mxGeometry width="160" relative="1" as="geometry">
            <mxPoint x="340" y="310" as="sourcePoint" />
            <mxPoint x="500" y="310" as="targetPoint" />
          </mxGeometry>
        </mxCell>
        <mxCell id="kH1T388jV72Jrz55Pmgw-24" value="modifier fiches lecteurs" style="ellipse;whiteSpace=wrap;html=1;fillColor=#f8cecc;strokeColor=#b85450;" vertex="1" parent="1">
          <mxGeometry x="230" y="170" width="140" height="70" as="geometry" />
        </mxCell>
        <mxCell id="kH1T388jV72Jrz55Pmgw-25" value="" style="endArrow=open;endFill=1;endSize=12;html=1;exitX=0.5;exitY=0.5;exitDx=0;exitDy=0;exitPerimeter=0;fillColor=#f8cecc;strokeColor=#b85450;" edge="1" parent="1" source="kH1T388jV72Jrz55Pmgw-4" target="kH1T388jV72Jrz55Pmgw-24">
          <mxGeometry width="160" relative="1" as="geometry">
            <mxPoint x="340" y="310" as="sourcePoint" />
            <mxPoint x="500" y="310" as="targetPoint" />
          </mxGeometry>
        </mxCell>
        <mxCell id="kH1T388jV72Jrz55Pmgw-26" value="mettre un document hors service" style="ellipse;whiteSpace=wrap;html=1;fillColor=#f8cecc;strokeColor=#b85450;" vertex="1" parent="1">
          <mxGeometry x="640" y="515" width="140" height="70" as="geometry" />
        </mxCell>
        <mxCell id="kH1T388jV72Jrz55Pmgw-27" value="" style="endArrow=open;endFill=1;endSize=12;html=1;exitX=0.8;exitY=0.833;exitDx=0;exitDy=0;exitPerimeter=0;fillColor=#f8cecc;strokeColor=#b85450;" edge="1" parent="1" source="kH1T388jV72Jrz55Pmgw-4" target="kH1T388jV72Jrz55Pmgw-26">
          <mxGeometry width="160" relative="1" as="geometry">
            <mxPoint x="340" y="310" as="sourcePoint" />
            <mxPoint x="500" y="310" as="targetPoint" />
          </mxGeometry>
        </mxCell>
        <mxCell id="kH1T388jV72Jrz55Pmgw-28" value="Use" style="endArrow=open;endSize=12;dashed=1;html=1;" edge="1" parent="1" source="kH1T388jV72Jrz55Pmgw-29" target="kH1T388jV72Jrz55Pmgw-15">
          <mxGeometry width="160" relative="1" as="geometry">
            <mxPoint x="340" y="210" as="sourcePoint" />
            <mxPoint x="500" y="210" as="targetPoint" />
          </mxGeometry>
        </mxCell>
        <mxCell id="kH1T388jV72Jrz55Pmgw-29" value="vérifier disponibilité" style="ellipse;whiteSpace=wrap;html=1;" vertex="1" parent="1">
          <mxGeometry x="470" y="-10" width="140" height="70" as="geometry" />
        </mxCell>
      </root>
    </mxGraphModel>
  </diagram>
</mxfile>
